<svg width="21" height="21" viewBox="0 0 21 21" fill="none" xmlns="http://www.w3.org/2000/svg">
<path d="M12.9482 7.71308L13.0656 7.97634L13.3523 8.00657L18.2145 8.51917C18.645 8.56456 18.8184 9.09841 18.4966 9.38803L14.8655 12.6568L14.651 12.8499L14.7109 13.1322L15.7254 17.9101C15.8153 18.3334 15.3616 18.6632 14.9867 18.4472L10.7496 16.0061L10.5 15.8623L10.2504 16.0061L6.01327 18.4472C5.63836 18.6632 5.1847 18.3334 5.27457 17.9101L6.2891 13.1322L6.34905 12.8499L6.13452 12.6568L2.50338 9.38803C2.18164 9.09841 2.35497 8.56456 2.78547 8.51917L7.64766 8.00657L7.93436 7.97634L8.05184 7.71308L10.0434 3.25016C10.2197 2.85517 10.7803 2.85517 10.9566 3.25016L12.9482 7.71308Z" stroke="#117dc1"/>
</svg>
